<svg width="48" height="48" viewBox="0 0 48 48" fill="none" xmlns="http://www.w3.org/2000/svg">
<rect width="48" height="48" rx="12" fill="#AC6AFF"/>
<g transform="translate(12, 12) scale(0.5)">
<g transform="scale(1.5)" fill="#0E0C15">
  <path fill-rule="evenodd" clip-rule="evenodd" d="M16 20.0429L2.49615 12.3264L2.49625 27.5L4.50006 29L16 29.5H26.5001L29.5039 28V12.3264L16 20.0429Z"/>
  <path fill-rule="evenodd" clip-rule="evenodd" d="M3 11.5802L6.49614 9.58243L5.50386 7.84595L1 10.4196V13H3V11.5802ZM29 11.5802L25.5039 9.58243L26.4961 7.84595L31 10.4196V13H29V11.5802Z"/>
  <path d="M27 2H5V13.7572L7 14.9001V4H25V14.9L27 13.7572V2Z"/>
  <path fill-rule="evenodd" clip-rule="evenodd" d="M3 11V26C3 27.1046 3.89543 28 5 28H27C28.1046 28 29 27.1046 29 26V11H31V26C31 28.2091 29.2091 30 27 30H5C2.79086 30 1 28.2091 1 26V11H3Z"/>
  <path fill-rule="evenodd" clip-rule="evenodd" d="M17 9L10 9.00001L10 7.00001L17 7L17 9Z"/>
  <path fill-rule="evenodd" clip-rule="evenodd" d="M22 13L10 13L10 11L22 11L22 13Z"/>
</g>
</g>
</svg>
