<svg width="48" height="48" viewBox="0 0 48 48" fill="none" xmlns="http://www.w3.org/2000/svg">
<rect width="48" height="48" rx="12" fill="#FF776F"/>
<g transform="translate(12, 12) scale(0.5)">
<g transform="scale(1.5)" fill="#0E0C15">
  <path d="M30.414,27.586l-6.214-6.217c-.804,1.074-1.757,2.027-2.831,2.831l6.217,6.217c.794,.767,2.061,.745,2.828-.049,.749-.775,.749-2.004,0-2.779v-.003Z"/>
  <path d="M25,13c0-6.627-5.373-12-12-12S1,6.373,1,13s5.373,12,12,12c6.624-.007,11.993-5.376,12-12Zm-12,10c-5.523,0-10-4.477-10-10S7.477,3,13,3c5.52,.006,9.994,4.48,10,10,0,5.523-4.477,10-10,10Z"/>
  <path d="M13,5c-4.411,0-8,3.589-8,8,0,.552,.448,1,1,1s1-.448,1-1c0-3.309,2.691-6,6-6,.552,0,1-.448,1-1s-.448-1-1-1Z"/>
</g>
</g>
</svg>
