<svg width="48" height="48" viewBox="0 0 48 48" fill="none" xmlns="http://www.w3.org/2000/svg">
<rect width="48" height="48" rx="12" fill="#FFC876"/>
<g transform="translate(12, 12) scale(0.5)">
<g transform="scale(1.5)" fill="#0E0C15">
  <path d="M16,20.882l5.882-2.941-5.435-2.718a1,1,0,0,0-.894,0l-5.435,2.718Z"/>
  <path d="M17,22.618V30l5.447-2.724A1,1,0,0,0,23,26.382V19.618Z"/>
  <path d="M15,22.618l-6-3v6.764a1,1,0,0,0,.553.894L15,30Z"/>
  <path d="M8,7.145,13.882,4.2,8.447,1.486a1,1,0,0,0-.894,0L2.118,4.2Z"/>
  <path d="M9,8.881v7.382l5.447-2.724A1,1,0,0,0,15,12.645V5.881Z"/>
  <path d="M7,8.881l-6-3v6.764a1,1,0,0,0,.553.894L7,16.263Z"/>
  <path d="M24,7.145,29.882,4.2,24.447,1.486a1,1,0,0,0-.894,0L18.118,4.2Z"/>
  <path d="M25,8.881v7.382l5.447-2.724A1,1,0,0,0,31,12.645V5.881Z"/>
  <path d="M23,8.881l-6-3v6.764a1,1,0,0,0,.553.894L23,16.263Z"/>
</g>
</g>
</svg>
