<svg width="50" height="7" viewBox="0 0 50 7" fill="none" xmlns="http://www.w3.org/2000/svg">
<path d="M0.808594 6V0.398438H3.96875V0.894531H1.33594V2.76953H3.48828V3.26562H1.33594V5.50391H4.04688V6H0.808594ZM10.4845 3.23047V6H9.98844V3.29688C9.98844 2.97135 9.93375 2.73568 9.82438 2.58984C9.715 2.44401 9.5288 2.36979 9.26578 2.36719C8.92464 2.36719 8.63948 2.53776 8.41031 2.87891C8.18115 3.22005 8.06656 3.67057 8.06656 4.23047V6H7.57047V3.29688C7.57047 2.97135 7.51578 2.73568 7.40641 2.58984C7.29703 2.44401 7.11214 2.36979 6.85172 2.36719C6.51057 2.36719 6.22542 2.53776 5.99625 2.87891C5.76708 3.22005 5.6525 3.67057 5.6525 4.23047V6H5.15641V1.96875H5.6525V2.80859C5.7801 2.52474 5.95589 2.30339 6.17984 2.14453C6.4038 1.98568 6.6538 1.90495 6.92984 1.90234C7.54443 1.90234 7.91031 2.20182 8.0275 2.80078C8.17073 2.53776 8.36083 2.32292 8.59781 2.15625C8.83479 1.98958 9.08479 1.90495 9.34781 1.90234C9.73844 1.90234 10.0249 2.01172 10.2072 2.23047C10.3895 2.44922 10.4819 2.78255 10.4845 3.23047ZM14.4573 3.32812V6H14.0823L13.9613 5.375C13.6956 5.83333 13.2711 6.0625 12.6878 6.0625C12.305 6.0625 12.0003 5.95833 11.7738 5.75C11.5472 5.54167 11.4339 5.23047 11.4339 4.81641C11.4339 4.39974 11.5967 4.07943 11.9222 3.85547C12.2477 3.63151 12.7034 3.51953 13.2894 3.51953H13.9613V3.34375C13.9613 2.69271 13.6514 2.36719 13.0316 2.36719C12.542 2.36719 12.223 2.61849 12.0745 3.12109L11.5941 3.00781C11.6461 2.67708 11.805 2.41016 12.0706 2.20703C12.3363 2.00391 12.667 1.90234 13.0628 1.90234C13.4534 1.90234 13.7816 2.03125 14.0472 2.28906C14.3206 2.53385 14.4573 2.88021 14.4573 3.32812ZM13.305 3.98438C12.8623 3.98438 12.5264 4.05729 12.2972 4.20312C12.068 4.34896 11.9534 4.55208 11.9534 4.8125C11.9534 5.07031 12.0224 5.26562 12.1605 5.39844C12.2985 5.53385 12.5068 5.60156 12.7855 5.60156C13.0641 5.60156 13.3297 5.48177 13.5823 5.24219C13.8349 5.0026 13.9613 4.63411 13.9613 4.13672V3.98438H13.305ZM15.5239 6V1.96875H16.02V6H15.5239ZM15.477 1.10547C15.4015 1.02474 15.3638 0.925781 15.3638 0.808594C15.3638 0.691406 15.4028 0.59375 15.4809 0.515625C15.5591 0.4375 15.6567 0.398438 15.7739 0.398438C15.8911 0.398438 15.9861 0.438802 16.0591 0.519531C16.1398 0.595052 16.1802 0.691406 16.1802 0.808594C16.1802 0.925781 16.1411 1.02344 16.063 1.10156C15.9822 1.17969 15.8846 1.21875 15.77 1.21875C15.6554 1.21875 15.5578 1.18099 15.477 1.10547ZM17.1217 6V0.335938H17.6139V6H17.1217Z" fill="black"/>
<path d="M19.6602 3.10547C19.4753 3.33984 19.3828 3.63281 19.3828 3.98438C19.3828 4.33594 19.4753 4.62891 19.6602 4.86328C19.8451 5.09766 20.0885 5.21484 20.3906 5.21484C20.6927 5.21484 20.9388 5.09766 21.1289 4.86328C21.3112 4.62891 21.401 4.33594 21.3984 3.98438C21.3984 3.63281 21.3073 3.33984 21.125 3.10547C20.9427 2.87109 20.6979 2.75391 20.3906 2.75391C20.0885 2.75391 19.8451 2.87109 19.6602 3.10547ZM18.8945 5.48047C18.5273 5.08984 18.3438 4.59375 18.3438 3.99219C18.3438 3.39062 18.5273 2.89193 18.8945 2.49609C19.2617 2.10026 19.7604 1.90234 20.3906 1.90234C21.0208 1.90234 21.5195 2.10026 21.8867 2.49609C22.2539 2.89193 22.4375 3.39062 22.4375 3.99219C22.4375 4.59375 22.2552 5.08984 21.8906 5.48047C21.5208 5.87109 21.0208 6.06641 20.3906 6.06641C19.7604 6.06641 19.2617 5.87109 18.8945 5.48047ZM23.9572 6L22.59 1.96875H23.59L24.4064 4.77734L25.2228 1.96875H26.2228L24.8556 6H23.9572ZM28.3128 2.75391C28.0836 2.75391 27.8909 2.82682 27.7347 2.97266C27.5784 3.11849 27.4795 3.30078 27.4378 3.51953H29.1761C29.0641 3.00911 28.7764 2.75391 28.3128 2.75391ZM30.1917 3.89453V4.30469H27.4144C27.4248 4.5599 27.5172 4.77604 27.6917 4.95312C27.8662 5.13021 28.0915 5.21745 28.3675 5.21484C28.779 5.21484 29.1045 5.00781 29.3441 4.59375L30.1448 4.88672C29.8037 5.67057 29.193 6.0625 28.3128 6.0625C27.9847 6.0625 27.6904 6 27.43 5.875C27.1696 5.75 26.9665 5.58464 26.8206 5.37891C26.6748 5.17318 26.5641 4.95182 26.4886 4.71484C26.4131 4.47786 26.3753 4.23438 26.3753 3.98438C26.3753 3.73438 26.4131 3.49089 26.4886 3.25391C26.5641 3.01693 26.6748 2.79557 26.8206 2.58984C26.9665 2.38411 27.1683 2.21875 27.4261 2.09375C27.6839 1.96875 27.9743 1.90625 28.2972 1.90625C28.6201 1.90625 28.9079 1.96615 29.1605 2.08594C29.4105 2.20573 29.6097 2.36849 29.7581 2.57422C30.0472 2.97005 30.1917 3.41016 30.1917 3.89453ZM31.9184 4.56641V6H30.9263V1.96875H31.9184V2.625C32.2231 2.14583 32.6203 1.90495 33.1098 1.90234C33.2687 1.90234 33.4315 1.92969 33.5981 1.98438L33.4145 2.90234C33.2921 2.82682 33.1528 2.79036 32.9966 2.79297C32.6632 2.79036 32.4002 2.9375 32.2075 3.23438C32.0148 3.53125 31.9184 3.97526 31.9184 4.56641ZM34.2702 2.81641H33.7584V1.96875H34.2702V1.76172C34.2702 1.29036 34.3912 0.934896 34.6334 0.695312C34.8756 0.455729 35.2181 0.335938 35.6608 0.335938H37.8756V6H36.8834V1.18359H35.7155C35.4108 1.18359 35.2597 1.35156 35.2623 1.6875V1.96875H36.11V2.81641H35.2623V6H34.2702V2.81641ZM39.9852 3.10547C39.8003 3.33984 39.7078 3.63281 39.7078 3.98438C39.7078 4.33594 39.8003 4.62891 39.9852 4.86328C40.1701 5.09766 40.4135 5.21484 40.7156 5.21484C41.0177 5.21484 41.2638 5.09766 41.4539 4.86328C41.6362 4.62891 41.726 4.33594 41.7234 3.98438C41.7234 3.63281 41.6323 3.33984 41.45 3.10547C41.2677 2.87109 41.0229 2.75391 40.7156 2.75391C40.4135 2.75391 40.1701 2.87109 39.9852 3.10547ZM39.2195 5.48047C38.8523 5.08984 38.6688 4.59375 38.6688 3.99219C38.6688 3.39062 38.8523 2.89193 39.2195 2.49609C39.5867 2.10026 40.0854 1.90234 40.7156 1.90234C41.3458 1.90234 41.8445 2.10026 42.2117 2.49609C42.5789 2.89193 42.7625 3.39062 42.7625 3.99219C42.7625 4.59375 42.5802 5.08984 42.2156 5.48047C41.8458 5.87109 41.3458 6.06641 40.7156 6.06641C40.0854 6.06641 39.5867 5.87109 39.2195 5.48047ZM47.1064 4.73438L47.8291 1.96875H48.8291L47.54 6H46.6611L45.9619 3.39062L45.2666 6H44.3877L43.0986 1.96875H44.0986L44.8213 4.73438L45.5009 1.96875H46.4267L47.1064 4.73438Z" fill="black"/>
</svg>
