<svg width="649" height="165" viewBox="0 0 649 165" fill="none" xmlns="http://www.w3.org/2000/svg">
<rect y="0.282959" width="163" height="25.6877" fill="black"/>
<rect y="33.9107" width="163" height="25.6877" fill="black"/>
<path d="M0 67.5382H163V93.6635H30.0774V102.424H163V128.862H30.0774V138.248H163V164.217H0V67.5382Z" fill="black"/>
<path d="M454.343 0V62.2C454.343 63.2 454.943 63.7 455.843 63.7H465.943V70H453.843C449.443 70 446.943 66.8 446.943 62.8V0H454.343Z" fill="black"/>
<path d="M423.701 0H431.301V9.2H423.701V0ZM423.901 18.5H431.201V70H423.901V18.5Z" fill="black"/>
<path d="M381.314 46.7C375.414 47.8 369.314 49.9 369.314 56.7C369.314 64 374.814 66.3 382.114 66.3C391.214 66.3 400.914 59.8 400.914 50.1V42.6C400.814 42.6 399.914 43.5 396.814 44C393.014 44.7 381.314 46.7 381.314 46.7ZM378.814 41.9C378.814 41.9 393.614 39.6 396.514 39.1C398.714 38.8 400.914 37.9 400.914 35.6C400.914 27.8 396.214 22.8 386.414 22.8C378.414 22.8 371.714 26.8 370.814 34.6H363.614C365.014 22.6 374.514 17 386.414 17C399.614 17 407.914 23 407.914 36.9V64.7H411.614V70H405.714C403.314 70 401.614 68.6 401.614 65.4V60.1H400.514C396.514 67.6 388.914 71.5 380.214 71.5C370.014 71.5 362.114 67.3 362.114 57C362.114 47.1 370.214 43.4 378.814 41.9Z" fill="black"/>
<path d="M332.154 17C343.454 17 350.254 25.1 350.254 35.7V70H342.954V36.8C342.954 29.2 337.854 23.2 330.054 23.2C321.154 23.2 316.754 32.8 316.554 41V70H309.254V36.8C309.254 29.3 304.954 23.2 297.054 23.2C288.154 23.2 283.054 33.4 283.054 42.7V70H275.654V18.5H282.254V27.7H283.154C286.254 21.6 291.754 17 299.054 17C306.954 17 312.654 21 315.154 27.7H316.154C319.054 21.6 324.854 17 332.154 17Z" fill="black"/>
<path d="M237.7 22.8C227.4 22.8 220.7 31.1 219.6 40.8H256.1C255 30.8 248.2 22.8 237.7 22.8ZM237.7 17C252.2 17 263.4 28.9 263.4 43.1C263.4 44 263.4 44.8 263.3 45.7H219.6C219.8 56.8 227.4 65.8 238.8 65.8C246.1 65.8 252.4 61.9 255.3 55.2H262.5C258.8 65.7 249.5 71.5 238.8 71.5C223.2 71.5 212 59.7 212 44.2C212 29.5 222.2 17 237.7 17Z" fill="black"/>
<path d="M631.409 111.5H648.509L633.409 163H615.409L606.609 128.9H605.409L596.709 163H578.709L563.509 111.5H580.609L588.409 148.3H589.509L597.909 111.5H614.109L622.509 148.3H623.609L631.409 111.5Z" fill="black"/>
<path d="M533.355 122.6C524.755 122.6 520.755 129.7 520.755 137.2C520.755 144.8 524.755 151.8 533.355 151.8C542.055 151.8 545.955 144.7 545.955 137.2C545.955 129.7 541.955 122.6 533.355 122.6ZM533.355 110C549.555 110 561.155 121.2 561.155 137.2C561.155 153.1 549.555 164.5 533.355 164.5C517.255 164.5 505.555 153.3 505.555 137.2C505.555 121.2 517.255 110 533.355 110Z" fill="black"/>
<path d="M473.101 150.8V103.3H456.001C455.301 103.3 454.701 103.9 454.701 104.6V111.5H465.301V123.9H454.701V163H438.701V123.9H431.201V111.5H434.901C437.001 111.5 438.701 109.7 438.701 107.6V101C438.701 95.8 441.401 91.5 447.401 91.5H489.001V147.5C489.001 149.4 489.901 150 491.401 150H499.401V163H484.901C477.101 163 473.101 157 473.101 150.8Z" fill="black"/>
<path d="M422.899 111.5H427.399V125.9L423.199 125.8C413.799 125.8 409.299 131 409.299 143.2V163H393.399V122H389.499V111.5H398.999C403.399 111.5 406.399 115.1 406.399 119.6V121.5H407.699C409.799 114.4 416.399 111.5 422.899 111.5Z" fill="black"/>
<path d="M357.369 121.7C350.969 121.7 347.169 126.5 346.269 132.6H369.269C368.269 126.3 364.369 121.7 357.369 121.7ZM357.369 110C373.469 110 384.869 121.4 384.869 137.2C384.869 138.6 384.769 140 384.469 141.3H346.169C346.869 148 350.969 153.1 358.369 153.1C362.969 153.1 367.269 151.3 369.269 147H383.769C379.669 159.3 369.869 164.5 358.169 164.5C341.969 164.5 329.969 153.3 329.969 137.2C329.969 121.4 341.169 110 357.369 110Z" fill="black"/>
<path d="M311.654 111.5H328.554L309.454 163H288.954L269.854 111.5H286.854L298.554 148.5H299.754L311.654 111.5Z" fill="black"/>
<path d="M239.8 122.6C231.2 122.6 227.2 129.7 227.2 137.2C227.2 144.8 231.2 151.8 239.8 151.8C248.5 151.8 252.4 144.7 252.4 137.2C252.4 129.7 248.4 122.6 239.8 122.6ZM239.8 110C256 110 267.6 121.2 267.6 137.2C267.6 153.1 256 164.5 239.8 164.5C223.7 164.5 212 153.3 212 137.2C212 121.2 223.7 110 239.8 110Z" fill="black"/>
</svg>
