<svg width="119" height="100" viewBox="0 0 119 100" fill="none" xmlns="http://www.w3.org/2000/svg">
<path d="M87.707 0C48.6202 0 0 40.4415 0 73.9589C0 91.269 13.2965 100 30.858 100C43.7531 100 59.3578 95.283 74.4105 86.202V19.3176C70.3964 26.1917 51.5304 53.8886 36.3773 68.6402C28.6503 76.1666 22.5289 79.428 17.2604 79.428C11.3397 79.428 8.5299 75.4139 8.5299 69.4431C8.5299 42.3482 54.1395 7.1249 84.345 7.1249C96.789 7.1249 104.817 12.6443 104.817 23.3818C104.817 33.2162 98.144 45.5594 86.754 56.9493V77.6718C106.623 61.9669 118.515 41.9468 118.515 25.7902C118.515 8.7807 105.268 0 87.707 0Z" fill="black"/>
</svg>
