<?xml version="1.0" encoding="UTF-8" standalone="no"?>
<svg xmlns="http://www.w3.org/2000/svg" viewBox="0 0 815 980" height="300" width="246">
  <g>
    <path style="opacity:1;fill:#000000" d="M 599.07,6.2 C 667.63,6.2 736.2,6.19 804.76,6.21 C 804.8,21.65 804.68,37.1 804.83,52.55 C 787.41,53.31 769.6,55.26 753.56,62.55 C 737.29,69.86 723.65,83.16 716.63,99.63 C 633.26,295.61 549.95,491.61 466.67,687.63 C 465.23,690.85 464.07,694.18 462.39,697.29 C 432.57,696.94 402.74,697.24 372.92,697.13 C 359.76,670.98 346.81,644.72 333.54,618.63 C 318.33,659.39 303.03,700.11 287.82,740.86 C 386.19,740.87 484.56,740.86 582.93,740.87 C 600.94,741.11 619.49,740.36 636.34,733.32 C 664.34,722.07 686.63,700.33 704.77,676.76 C 726.67,648.2 743.29,616.05 758.1,583.38 C 774.71,583.24 791.31,583.43 807.91,583.4 C 776.43,650.64 744.79,717.82 713.03,784.93 C 486.35,784.94 259.68,784.93 33,784.93 C 38.52,770.52 43.77,755.99 49.69,741.73 C 50.05,740.26 51.88,740.63 52.99,740.49 C 81.29,740.28 109.78,739.18 137.55,733.29 C 152,729.9 166.95,725.38 178.07,715.06 C 183.95,709.45 185.78,701.26 187.73,693.7 C 214.5,622.06 241.31,550.43 268.1,478.8 C 211.48,358.16 154.67,237.59 98.02,116.96 C 93.46,106.41 87.44,95.96 77.97,89.09 C 58.37,74.41 32.9,72.55 9.3,71.61 C 9.28,54.32 9.3,37.04 9.29,19.75 C 88.88,19.72 168.46,19.73 248.05,19.74 C 248.06,37.03 248.07,54.32 248.04,71.61 C 237.67,72.27 226.66,72.1 217.27,77.23 C 212.61,79.43 209.87,84.97 211.07,90.01 C 212.54,98.26 219.06,104.15 222.36,111.6 C 255.97,183.99 289.58,256.39 323.29,328.75 C 340.18,281.52 357.07,234.3 374.03,187.1 C 376.52,180.54 377.4,172.96 374.56,166.36 C 372.33,161.15 367.27,157.93 362.28,155.76 C 352.58,151.76 341.92,151.8 331.64,151.06 C 336.89,136.47 342.17,121.88 347.61,107.37 C 348.87,106.56 350.62,107.18 352.07,106.98 C 432.82,107.03 513.58,106.98 594.34,107.01 C 588.76,121.67 583.21,136.33 577.69,151.01 C 558.24,151.91 538.19,152.4 519.95,160 C 511.59,163.5 503.68,168.85 498.74,176.59 C 495.31,182.26 493.18,188.59 490.88,194.77 C 457.14,286.79 423.09,378.69 389.73,470.85 C 408.21,512.62 427.47,554.03 446.32,595.63 C 514.77,433.99 583.2,272.33 651.73,110.72 C 656.35,101 663.87,92.13 664.46,80.95 C 665.03,72.2 658.54,64.65 651.02,61.06 C 634.81,53.58 616.59,53.21 599.07,52.58 C 599.05,37.12 599.05,21.66 599.07,6.2 z" />
  </g>
</svg>